/* XPM */
static char *xpm_[] = {
/* columns rows colors chars-per-pixel */
"32 32 94 2 ",
"   c #191A1A",
".  c #1A1B1B",
"X  c #1C181B",
"o  c #222122",
"O  c #282125",
"+  c #292125",
"@  c #292226",
"#  c #2A2226",
"$  c #2B2327",
"%  c #2C232A",
"&  c #302429",
"*  c #32262D",
"=  c #33262E",
"-  c #34272C",
";  c #35272E",
":  c #392832",
">  c #3A2933",
",  c #3C2934",
"<  c #3F2A35",
"1  c #3E2B36",
"2  c #3D3033",
"3  c #3E3034",
"4  c #402B36",
"5  c #412B37",
"6  c #422C38",
"7  c #432D39",
"8  c #442E3A",
"9  c #452E3A",
"0  c #5C3639",
"q  c #603839",
"w  c #643B3D",
"e  c #4F4137",
"r  c #604337",
"t  c #7C3E42",
"y  c #7C4443",
"u  c #666566",
"i  c #77777B",
"p  c #7A787A",
"a  c #804543",
"s  c #824445",
"d  c #844745",
"f  c #814F42",
"g  c #804E43",
"h  c #8C4F43",
"j  c #98584B",
"k  c #99594B",
"l  c #A45D4F",
"z  c #B0595C",
"x  c #B2585E",
"c  c #B3595E",
"v  c #BD5D58",
"b  c #C7615F",
"n  c #CD645E",
"m  c #CE655E",
"M  c #CF665F",
"N  c #CA685F",
"B  c #D06560",
"V  c #D36460",
"C  c #D56662",
"Z  c #D96963",
"A  c #E97567",
"S  c #EE756A",
"D  c #F1766B",
"F  c #F5726D",
"G  c #FA736D",
"H  c #FA756E",
"J  c #FB7771",
"K  c #F7BA12",
"L  c #F7C413",
"P  c #FB8078",
"I  c #FB867C",
"U  c #FA897E",
"Y  c #F8CB46",
"T  c #818187",
"R  c #86878A",
"E  c #888A8F",
"W  c #8B8B8F",
"Q  c #909097",
"!  c #909098",
"~  c #9B9BA0",
"^  c #A1A1AA",
"/  c #A4A4AD",
"(  c #A6A6AF",
")  c #FA8980",
"_  c #FA8C81",
"`  c #FA8F84",
"'  c #FA8F87",
"]  c #FA9086",
"[  c #FA9088",
"{  c #FA998D",
"}  c #FA9B8F",
"|  c #FA9D91",
" . c #FAA597",
".. c None",
/* pixels */
"................................................................",
"................................................................",
"................................................................",
"........... . ..o o ............................................",
"......... / ~ o ( W o X X X X ..................................",
"....... Q / ( / ~ e h l  .D t X ................................",
"....... T ! ^ R r k  . . . .S t X ..............................",
"......... E p r k  . . . . . .A t X ............................",
"....... i u g `  . .Y  . . . . .N q X ..........................",
"....... e g U |  . .Y  . . . .[ q 2 2 X ........................",
"......... I I U { | L Y  . .[ z 9 9 2 2 X ......................",
"......X M I I I I _ K L  .[ z 9 9 9 9 2 2 X ....................",
"......X M I I I I _ { L Y c 9 9 9 Y 9 9 4 2 X ..................",
"......X M H I I I I I K Y Y 9 Y Y Y 9 9 8 2 2 X ................",
"......X d M G I I U J K L Y Y Y Y Y 9 9 8 8 2 2 X ..............",
"........X s V F G J b > K L Y Y Y Y 9 9 8 8 8 3 3 X ............",
"..........X y M C Z w : K L Y Y Y Y Y 9 9 9 9 9 9 2 X ..........",
"............X y v q + * K L L 6 L Y Y 9 9 9 9 9 9 9 2 X ........",
"..............X 0 + + $ * K : , < L Y 9 9 9 9 9 9 9 2 X ........",
"................. + + + % : : : : 6 Y Y 7 9 9 9 9 9 9 . ........",
"..................X + + $ = : : : , L Y < 8 9 9 8 8 - X ........",
"..................... O + % : : : : 6 L L 8 9 9 8 8 X X ........",
"......................X O + % * : : : , 6 9 9 9 9 ; X ..........",
"........................X O O + $ - : : : , 8 9 * X ............",
"..........................X O O O + - : : : 7 * X ..............",
"............................X + O O + ; : : * X ................",
"..............................X O O O + ; * X ..................",
"................................X O O + + X ....................",
"..................................X X X X ......................",
"................................................................",
"................................................................",
"................................................................"
};
