/* XPM */
static char *xpm_[] = {
/* columns rows colors chars-per-pixel */
"32 32 193 2 ",
"   c #0B1F06",
".  c #030913",
"X  c #040A14",
"o  c #040A15",
"O  c #040A16",
"+  c #040B16",
"@  c #040B17",
"#  c #050C16",
"$  c #040C17",
"%  c #050C17",
"&  c #040C18",
"*  c #050C18",
"=  c #050D18",
"-  c #050C19",
";  c #060C18",
":  c #060D18",
">  c #060C19",
",  c #060E19",
"<  c #050D1B",
"1  c #060C1A",
"2  c #060D1A",
"3  c #060D1B",
"4  c #070E1A",
"5  c #060E1B",
"6  c #070E1B",
"7  c #060F1B",
"8  c #070F1B",
"9  c #060F1C",
"0  c #070F1C",
"q  c #060F1D",
"w  c #07101C",
"e  c #06101D",
"r  c #07101D",
"t  c #07111D",
"y  c #05111E",
"u  c #07101E",
"i  c #07111E",
"p  c #07111F",
"a  c #08101C",
"s  c #08101D",
"d  c #08111D",
"f  c #08101E",
"g  c #08111E",
"h  c #09101F",
"j  c #08111F",
"k  c #08121E",
"l  c #08121F",
"z  c #321D15",
"x  c #062609",
"c  c #052F0B",
"v  c #2B241A",
"b  c #332A1E",
"n  c #071220",
"m  c #071221",
"M  c #081221",
"N  c #081321",
"B  c #081224",
"V  c #081325",
"C  c #081326",
"Z  c #061629",
"A  c #091328",
"S  c #091428",
"D  c #091429",
"F  c #09142A",
"G  c #09152A",
"H  c #09152B",
"J  c #09162B",
"K  c #09152C",
"L  c #09162D",
"P  c #08172D",
"I  c #09172D",
"U  c #0A162E",
"Y  c #0A172F",
"T  c #0B1A35",
"R  c #0B1C3B",
"E  c #0B1D3C",
"W  c #0B1E3D",
"Q  c #0B1E3E",
"!  c #0B1E3F",
"~  c #2B2820",
"^  c #232133",
"/  c #41231A",
"(  c #44281D",
")  c #402E24",
"_  c #423728",
"`  c #0B1F40",
"'  c #0C2348",
"]  c #0E244C",
"[  c #0E264F",
"{  c #0E2750",
"}  c #0E2751",
"|  c #0E2851",
" . c #0F2853",
".. c #0F2954",
"X. c #0F2A55",
"o. c #102C5B",
"O. c #2A2743",
"+. c #322C44",
"@. c #332C44",
"#. c #332D44",
"$. c #342D44",
"%. c #362D44",
"&. c #352E44",
"*. c #372E44",
"=. c #332F4A",
"-. c #342E49",
";. c #3B3243",
":. c #393044",
">. c #393144",
",. c #393145",
"<. c #383753",
"1. c #403443",
"2. c #403A50",
"3. c #423A50",
"4. c #433B50",
"5. c #443C50",
"6. c #443C51",
"7. c #443E52",
"8. c #474156",
"9. c #494459",
"0. c #514A5E",
"q. c #48486B",
"w. c #48496B",
"e. c #554C60",
"r. c #544D61",
"t. c #565062",
"y. c #595466",
"u. c #5D5769",
"i. c #EB8329",
"p. c #EC8229",
"a. c #EC822A",
"s. c #E98529",
"d. c #F08727",
"f. c #F08F2A",
"g. c #ED982B",
"h. c #ED992C",
"j. c #EE992C",
"k. c #ED9A2C",
"l. c #F59428",
"z. c #F39E2A",
"x. c #F2992D",
"c. c #F39A2D",
"v. c #F2982E",
"b. c #EFA72D",
"n. c #EDA42F",
"m. c #EEA52F",
"M. c #EFA62E",
"N. c #EFA72E",
"B. c #EFA82E",
"V. c #F0A72C",
"C. c #F0A62D",
"Z. c #F0A62E",
"A. c #F0A72E",
"S. c #F3A82D",
"D. c #F3A92D",
"F. c #F1A82E",
"G. c #EFA732",
"H. c #F0A831",
"J. c #F7B631",
"K. c #F3C037",
"L. c #F8C135",
"P. c #F8C235",
"I. c #F8C236",
"U. c #F8C435",
"Y. c #F3C038",
"T. c #F4C238",
"R. c #F8C439",
"E. c #F8C43A",
"W. c #F5CC51",
"Q. c #F8D252",
"!. c #F7DF5D",
"~. c #6F7188",
"^. c #737383",
"/. c #707288",
"(. c #7A7A88",
"). c #7C7E8C",
"_. c #7D7F8D",
"`. c #7D818D",
"'. c #7E818D",
"]. c #7F828F",
"[. c #818291",
"{. c #828492",
"}. c #848794",
"|. c #868795",
" X c #8B8F9B",
".X c #989BA6",
"XX c #999DA7",
"oX c #9B9FA9",
"OX c #9FA1AC",
"+X c #9FA4AD",
"@X c #A1A2AD",
"#X c #A4A8B1",
"$X c None",
/* pixels */
"$X$X$X$X$X$X$X$X$X$X$X$X$X$X$X$X$X$X$X$X$X$X$X$X$X$X$X$X$X$X$X$X",
"$X$X$X$X$X$X$X$X$X$X$X$X$X$X$X$X$X$X$X$X$X$X$X$X$X$X$X$X$X$X$X$X",
"$X$X$X$X$X$X$X- - $ X X + + $ + + + + + $ $ $X$X$X$X$X$X$X$X$X$X",
"$X$X$X$X$X$X+ - - w k p n n k 0 p k - k p p - p 6 $X$X$X$X$X$X$X",
"$X$X$X$X$XX N N k w w w p p - - k - - k k w p w - + $X$X$X$X$X$X",
"$X$X$X$X$X+ N N N - p p X ^ =.=.=.=.=.=.=.u.$ w 6 N $X$X$X$X$X$X",
"$X$X$X$X- 0 N N N X . . ^ ^ '.OX@X@XOXOXXX^.t.a - k $X$X$X$X$X$X",
"$X$X$X$Xk - N k N . w ^ ^ `.{.0.5.5.4.4.y.}.(.0.- k + $X$X$X$X$X",
"$X$X$X$Xk - N a + a - ^ '.[.8.U U F F $ p 9. X.Xe.w + $X$X$X$X$X",
"$X$X$X$X6 0 k X + k N =.'.^ R ] ` R I S - - e.#X8.- + $X$X$X$X$X",
"$X$X$X$X+ a N + - k F =.).^ ..o...] ! S - - =.|.5.- - $X$X$X$X$X",
"$X$X$X$X+ 6 X + + C F =.'.^ ..o.o.{ ! F F 6 =._.4.. + + + + + $X",
"$X$X$X$X- 0 X a X C U =./.^ o.o.| { T I U > =./.4.+ $ n N N N $X",
"$X$X$X$X- 0 + k - N F =.w.<.X.....' ! U N - =.q.=.-   x c c k $ ",
"$X$X$Xa $ - v v v v v v v v v / / / / / ) a - - O n   x x c 0 O ",
"$X$X$X6 $ _ l.J.I.I.I.I.U.U.I.I.P.R.Q.!.U.) w p O p c   c x n - ",
"$X$X$X6 = b v.Y.M.M.M.M.b.D.M.M.V.M.H.W.R.v w k X w 6 $ 6 $ $ $ ",
"$X$X$X6 = v v.Y.b.M.M.M.;.;.M.n.V.M.M.B.R.v w a . p 6 ; F $ k - ",
"$X$X$Xh - v v.Y.b.M.M.;.$.$.;.M.D.M.M.M.R.v $ k X l c   c x p + ",
"$X$X$Xa ; b v.T.b.M.V.+.:.$.+.b.D.M.M.M.R.v 6 a X $ x x x c - X ",
"$X$X$X6 X / l.E.b.M.b.b.+.;.B.b.D.M.M.M.R.v w k X $ - k k p p $X",
"$X$X$Xa X b c.J.b.M.b.b.+.;.b.D.b.M.M.M.R.~ - a X + + $ - 0 + $X",
"$X$X$Xh O z x.T.M.b.b.b.O.+.M.D.B.b.M.M.R.~ k - X k - X + $X$X$X",
"$X$X$Xk O z l.G.B.B.b.b.b.M.B.D.M.B.M.D.s.~ p - + k - X X $X$X$X",
"$X$X$X6 + z a.i.g.g.j.x.z.z.g.g.g.g.j.g.d.~ 6 + X k - + + $X$X$X",
"$X$X$X> X z ( a.a.a.a.a.a.i.p.p.a.a.a.a.( v 6 6 + p - + X $X$X$X",
"$X$X$Xa $ - z / / / / ( ( ( ( ( ( ( / ( ( a a - X 0 0 + + $X$X$X",
"$X$X$Xa ; 6 X z z z z z z z z z / / ( ( 6 - 6 - X > - + X $X$X$X",
"$X$X$Xa ; p X a 6 k 6 a F F U U F S F - a 6 a - + k > X X $X$X$X",
"$X$X$Xk ; k X - k k k a p 0 p a p - - k - - - X X - 6 X X $X$X$X",
"$X$X$X0 a k w X - - p - - p 0 0 k k - k p p k p X a > + + $X$X$X",
"$X$X$X$Xk + k - X $ $ - $ $ + . X X + - - > > > + a N X X $X$X$X"
};
