/* XPM */
static char *xpm_[] = {
/* columns rows colors chars-per-pixel */
"32 32 179 2 ",
"   c #030913",
".  c #030A16",
"X  c #040A14",
"o  c #040A15",
"O  c #040A16",
"+  c #040B16",
"@  c #040B17",
"#  c #050C16",
"$  c #040C17",
"%  c #050C17",
"&  c #040C18",
"*  c #050C18",
"=  c #050D18",
"-  c #050C19",
";  c #060C18",
":  c #060D18",
">  c #060C19",
",  c #060E19",
"<  c #050D1B",
"1  c #060D1A",
"2  c #060D1B",
"3  c #070E1A",
"4  c #060E1B",
"5  c #070E1B",
"6  c #060F1B",
"7  c #070F1B",
"8  c #060F1C",
"9  c #070F1C",
"0  c #060F1D",
"q  c #070F1D",
"w  c #070F1E",
"e  c #080F1C",
"r  c #080E1D",
"t  c #080F1D",
"y  c #080F1E",
"u  c #1B0B17",
"i  c #07101C",
"p  c #06101D",
"a  c #07101D",
"s  c #05111E",
"d  c #07101E",
"f  c #07111E",
"g  c #07111F",
"h  c #08101C",
"j  c #08101D",
"k  c #08111D",
"l  c #08101E",
"z  c #08101F",
"x  c #08111F",
"c  c #08121E",
"v  c #08121F",
"b  c #20050A",
"n  c #32080F",
"m  c #321D15",
"M  c #2B241A",
"N  c #071220",
"B  c #071221",
"V  c #081121",
"C  c #081221",
"Z  c #081321",
"A  c #081122",
"S  c #091122",
"D  c #081224",
"F  c #081324",
"G  c #081325",
"H  c #091326",
"J  c #081426",
"K  c #091427",
"L  c #091428",
"P  c #091529",
"I  c #09152C",
"U  c #2B2820",
"Y  c #232133",
"T  c #5B0006",
"R  c #41231A",
"E  c #44281D",
"W  c #402E24",
"Q  c #2A2743",
"!  c #322C44",
"~  c #332C44",
"^  c #332D44",
"/  c #342D44",
"(  c #362D44",
")  c #352E44",
"_  c #372E44",
"`  c #332F4A",
"'  c #342E49",
"]  c #3B3243",
"[  c #393044",
"{  c #393144",
"}  c #393145",
"|  c #403443",
" . c #403A50",
".. c #423A50",
"X. c #433B50",
"o. c #443C50",
"O. c #443C51",
"+. c #443E52",
"@. c #474156",
"#. c #494459",
"$. c #514A5E",
"%. c #48486B",
"&. c #48496B",
"*. c #554C60",
"=. c #544D61",
"-. c #565062",
";. c #595466",
":. c #5D5769",
">. c #EB8329",
",. c #EC8229",
"<. c #EC822A",
"1. c #E98529",
"2. c #EE8429",
"3. c #F28526",
"4. c #F08727",
"5. c #F08F2A",
"6. c #ED982B",
"7. c #ED992C",
"8. c #EE992C",
"9. c #ED9A2C",
"0. c #F59428",
"q. c #F39E2A",
"w. c #F2992D",
"e. c #F39A2D",
"r. c #F2982E",
"t. c #EFA72D",
"y. c #EDA42F",
"u. c #EEA52F",
"i. c #EFA62E",
"p. c #EFA72E",
"a. c #EFA82E",
"s. c #F0A72C",
"d. c #F0A62D",
"f. c #F0A62E",
"g. c #F0A72E",
"h. c #F3A82D",
"j. c #F3A92D",
"k. c #F1A82E",
"l. c #EFA732",
"z. c #F0A831",
"x. c #F3A932",
"c. c #F7B631",
"v. c #F8BD36",
"b. c #F3C037",
"n. c #F7C236",
"m. c #F8C135",
"M. c #F8C235",
"N. c #F8C236",
"B. c #F8C435",
"V. c #F3C038",
"C. c #F4C238",
"Z. c #F8C439",
"A. c #F8C43A",
"S. c #F8CB3F",
"D. c #F5CC51",
"F. c #F8D252",
"G. c #F7DF5D",
"H. c #6F7188",
"J. c #737383",
"K. c #707288",
"L. c #7A7A88",
"P. c #7C7E8C",
"I. c #7D7F8D",
"U. c #7D818D",
"Y. c #7E818D",
"T. c #7F828F",
"R. c #818291",
"E. c #828492",
"W. c #848794",
"Q. c #868795",
"!. c #8B8F9B",
"~. c #989BA6",
"^. c #999DA7",
"/. c #9B9FA9",
"(. c #9FA1AC",
"). c #9FA4AD",
"_. c #A1A2AD",
"`. c #A4A8B1",
"'. c None",
/* pixels */
"'.'.'.'.'.'.'.'.'.'.'.'.'.'.'.'.'.'.'.'.'.'.'.'.'.'.'.'.'.'.'.'.",
"'.'.'.'.'.'.'.'.'.'.'.'.'.'.'.'.'.'.'.'.'.'.'.'.'.'.'.'.'.'.'.'.",
"'.'.'.'.'.'.'.- - % X % + + % X + + + + - i '.'.'.'.'.'.'.'.'.'.",
"'.'.'.'.'.'.+ - - i d d N N d d d c - c d - i i - '.'.'.'.'.'.'.",
"'.'.'.'.'.X Z Z c - c d N z 2 e c - - c c i d i - - '.'.'.'.'.'.",
"'.'.'.'.'.+ Z Z Z - c ` ' ` ` ` ` ` :.- i % , i i N '.'.'.'.'.'.",
"'.'.'.'.- 9 Z Z Z + Y T./._./._._./.J.-.X X , % % c '.'.'.'.'.'.",
"'.'.'.'.c - Z c N Y P.R.$...O.O.X.;.W.L.$.% X % i d % '.'.'.'.'.",
"'.'.'.'.c 5 c e Y T.R.@.L L L L L L #.!.^.$.X % % i $ '.'.'.'.'.",
"'.'.'.'.5 - c + ' T.Y I I Z e I e Z Z *.`.+.X % i - - '.'.'.'.'.",
"'.'.'.'.+ c Z X ' P.Y 9 e 9 9 9 e F F ' Q.+.5 % i - % '.'.'.'.'.",
"'.'.'.'.- - X + ' I.Y 9 e 9 9 e w e I ' I.o.5 + i % X X + X + '.",
"'.'.'.'.- d X c ` H.Y F e 9 c c z z L ` K.O.> + - + % N Z Z Z '.",
"'.'.'.'.- - X c ` &.Y F F 9 - d z L L ` %._ 5 > $ - b T n n d % ",
"'.'.'.e % d X M M M M M M M M M M R R R E R W h X N b T T n d X ",
"'.'.'.5 % - M 0.c.n.n.n.N.N.N.B.N.N.v.A.F.G.m.U & d n b n T N - ",
"'.'.'.5 ; 5 M e.b.t.s.u.t.t.a.j.u.s.u.u.x.D.S.M X - i % i % % - ",
"'.'.'.5 % 5 M e.b.j.u.s.u.u.{ ] u.u.s.s.u.a.n.M $ Z % i u $ d % ",
"'.'.'.c ; 5 U e.b.u.u.t.t.] _ _ { j.j.u.u.a.n.M X d n b n T d $ ",
"'.'.'.c % 5 m e.b.t.u.t.t.! _ _ ! u.j.s.u.a.n.U X $ b T T n - X ",
"'.'.'.- $ - R e.b.u.u.t.t.t.! ] u.a.j.t.t.u.B.U X % - c d d N '.",
"'.'.'.c % d R e.b.a.t.t.t.t.! ] t.j.t.t.u.t.Z.U X + + % d & % '.",
"'.'.'.c % - m e.n.u.t.a.t.t.Q ! t.j.u.t.t.u.B.U X c - X + '.'.'.",
"'.'.'.e $ - m 5.z.a.u.j.t.t.t.a.t.j.a.u.j.u.x.M + d - X X '.'.'.",
"'.'.'.5 + - m 3.>.7.7.6.6.7.q.q.6.6.6.6.7.7.4.U X d i X X '.'.'.",
"'.'.'.; X - m E 2.,.<.<.<.2.<.<.>.<.<.<.<.<.E U % d - X X '.'.'.",
"'.'.'.c % 5 + m E E E E E E E E E E E E E E E ; X d - X + '.'.'.",
"'.'.'.e - - X 5 m m m m m m m m m m E E E E e ; X - d + X '.'.'.",
"'.'.'.e - d X h h h h 5 K K I Z Z Z I e 5 5 c ; X Z + + X '.'.'.",
"'.'.'.c ; c % - c c c e c h h d - - - e - - ; X X - 5 X X '.'.'.",
"'.'.'.9 c c - X - - 9 - - d - d d d 9 d N N c d X c ; + + '.'.'.",
"'.'.'.'.h % c - X - - & $ - % X X X X - - ; ; ; + e Z X X '.'.'."
};
