/* XPM */
static char *xpm_[] = {
/* columns rows colors chars-per-pixel */
"32 32 122 2 ",
"   c #112B38",
".  c #1B2E3F",
"X  c #1D3343",
"o  c #1F3648",
"O  c #1F3948",
"+  c #213646",
"@  c #223947",
"#  c #223748",
"$  c #253B4C",
"%  c #293E4E",
"&  c #263E50",
"*  c #2A3F51",
"=  c #27414E",
"-  c #2A414F",
";  c #274151",
":  c #2E4557",
">  c #2D4756",
",  c #2C4657",
"<  c #2F4656",
"1  c #2E4455",
"2  c #2C4253",
"3  c #2E4855",
"4  c #2F4956",
"5  c #2E4857",
"6  c #2E4857",
"7  c #2D4358",
"8  c #2A4558",
"9  c #2E4459",
"0  c #2D4758",
"q  c #2F4658",
"w  c #2F455A",
"e  c #2C475A",
"r  c #2E4758",
"t  c #2F4958",
"y  c #2E4859",
"u  c #2E495A",
"i  c #2F495A",
"p  c #2E4859",
"a  c #304351",
"s  c #324452",
"d  c #324553",
"f  c #304354",
"g  c #324355",
"h  c #304256",
"j  c #314357",
"k  c #314455",
"l  c #324554",
"z  c #304654",
"x  c #304755",
"c  c #314755",
"v  c #334655",
"b  c #304556",
"n  c #324556",
"m  c #314657",
"M  c #304757",
"N  c #314656",
"B  c #314856",
"V  c #324856",
"C  c #324957",
"Z  c #334957",
"A  c #334957",
"S  c #304558",
"D  c #334458",
"F  c #314659",
"G  c #304759",
"H  c #324758",
"J  c #32475A",
"K  c #344758",
"L  c #31475C",
"P  c #324758",
"I  c #314858",
"U  c #334859",
"Y  c #324959",
"T  c #31485A",
"R  c #33485B",
"E  c #32495B",
"W  c #304A5B",
"Q  c #334A5A",
"!  c #344A58",
"~  c #344B59",
"^  c #34495A",
"/  c #36495A",
"(  c #354A5B",
")  c #344B5B",
"_  c #374A5B",
"`  c #324C59",
"'  c #364C5A",
"]  c #364D5B",
"[  c #374D5B",
"{  c #30495D",
"}  c #314B5C",
"|  c #334A5C",
" . c #34495C",
".. c #37485C",
"X. c #354A5D",
"o. c #344B5D",
"O. c #364B5C",
"+. c #364B5E",
"@. c #354C5C",
"#. c #374C5D",
"$. c #344E5D",
"%. c #354C5E",
"&. c #364D5F",
"*. c #354F5E",
"=. c #344E5F",
"-. c #374E5E",
";. c #334A5A",
":. c #394C5B",
">. c #384B5C",
",. c #394C5D",
"<. c #394F5D",
"1. c #384D5E",
"2. c #3B4E5F",
"3. c #36505F",
"4. c #374E60",
"5. c #384D60",
"6. c #3C4F60",
"7. c #3B5264",
"8. c #3C5164",
"9. c #3E5366",
"0. c #3D5061",
"q. c #415669",
/* pixels */
"  X o - 7.* & w & e 7 7 w w * # # % # % $ a % * % $ &.% w D 8 : ",
"` = % % +.$ ; w 5.i * L L * q.* ..* * * v K a g D 7 : $ &.; @ O ",
"B B 2 $ 8.* $ R 2 ; % @ # * * * % * * * * g D s D n ; : w $ E 2 ",
"- 3 % $ q.7 # % 2 % i 8 * ..* % D * * * * D * + % ; 7 : & X E w ",
": : K # # X D 5.U o 2 n s s . % * % * 2.* * * s o R w w E & o o ",
"; % a # K % +.* :.@ 2 2 % % . a * % % % ..* % + % n ; O ; * & ; ",
"K U v + / $ * n - - % % s % + $ % % * % % * ..% % ; w 4.4.4.7.+.",
",.U / % 2.+ 7 D d s + % % @ - d * D D % * * * % % 2 $ R =.D E w ",
"+ ; X # 2.+ % g % R - - d d s d 2 n g + : g * 2 $ % $ ; $ 2 2 w ",
"+.n ,./ g + % * ; 2 $ % - $ s d K n 2 # $ * * * 2 % % D w i 2 2 ",
"$ # % + + $ D w 8 ; 3 3 = $ a % 2 % 2 2 2 v g * % % * 7 2 i i w ",
"v a * g n o o X $ O $ X . % ,.:.U n g 2 $ 2 % % $ % * 7 $ 2 w 2 ",
"% % ; * $ # +.w ; 8 > 8 ; 2 ; $ + $ $ % $ % + $ D $ & E E R 8 n ",
"] d n D * X o L ; 8 8 8 8 ; o # * 7 * % 2 ; % >.: * & w 8 w 2 : ",
"@ - $ * 7 * * w u e e 8 3 8 % 2 # % g * n % $ R ; n * $ X $ & @ ",
"; 2 + v * # 5.2 8 8 e 8 8 3 8 2 @ % U 2 K $ $ n n 7 & 2 & E E 8 ",
"8 8 & % 2 $ 3 : 2 2 2 8 8 2 2 7 @ O 8 2 2 @ $ E & % 2 2 % U D 2 ",
"; ; ; w D $ : : u 8 2 8 8 * * 2 % % = = 2 8 & E % i [ d @ - 2 D ",
"3.R w w * o : : ; > 8 i n : 2 ; 2 3 2 3 D E % w o : : 2 $ $ $ # ",
"8 > w w * # R 3 u u 8 & % ; 2 % @ 3 2 R 8 i $ w @ : @ - * * 2 * ",
"= = ; ; $ + 2 $ = ; = O @ - 2 % $ B 2 n ; R & E = B $ d D % ; D ",
"3 8 2 n d - ] K =.` 3.4.3.Z d ; = - % ; % ; @ % X $ X - D 7 7 R ",
"= 3 2 - - $ - = = = = = - = $ @ 2 2 B B E &.: i B B @ % 2 : : : ",
"= = $ @ $ $ ' Z Z Z u 3 V V s - ' - B 3 w : : : : 3 = - : ` R : ",
"= 3 d - @ $ s s - - = = = - - s 2 U = $ & * & & $ : @ 3 - : : 3 ",
"- = - - % $ d s d B 3 3 Z - - s ] = @ R D &.4.w $ - @ $ - - % ; ",
"' 3 ' - s $ d V 3 2 3 3 d 3 - $ K - & : 2 2 2 i $ = $ - 3 R w R ",
"- = ' d s @ = 3 - = = ; = - % $ @ @ % D L 5.2 R $ 2 $ ' R : 2 2 ",
"O @ % g % % $ g D : i 3 R D v v d @ - B $ 7 : 2 @ 2 X ] % % $ O ",
"; : # g % % + % ; 2 2 ; - * a % - . @ B 7 ; % : @ 2 @ 3 = ; 8 8 ",
"n n + a g $ + @ @ @ $ @ + @ # X d % . $ R R ; R 2 - - = ; 2 8 i ",
"@ $ . g q.$ * v 3 : : B : D a % @ % + 7 : D R : &.@ B @ ` 8 i 3 "
};
