/* XPM */
static char *_4566_fb2ae6f47753df7690f6f16413b8e616d94e10a3d6c762a9def2ea7950901f82[] = {
/* columns rows colors chars-per-pixel */
"28 32 197 2 ",
"   c #080E0D",
".  c #03120D",
"X  c #001A0F",
"o  c #110F10",
"O  c #031412",
"+  c #0D1413",
"@  c #021B14",
"#  c #0B1A16",
"$  c #00161C",
"%  c #091718",
"&  c #021C1B",
"*  c #0B1C1A",
"=  c #131415",
"-  c #121A15",
";  c #121C19",
":  c #181D1B",
">  c #002315",
",  c #01231A",
"<  c #0C211B",
"1  c #002B1C",
"2  c #13211F",
"3  c #051623",
"4  c #021A24",
"5  c #0A1D23",
"6  c #001C29",
"7  c #111E25",
"8  c #022323",
"9  c #0E2322",
"0  c #032C21",
"q  c #022529",
"w  c #0F2E27",
"e  c #172725",
"r  c #003324",
"t  c #2B3E3A",
"y  c #004D2B",
"u  c #0C4C32",
"i  c #15443A",
"p  c #075639",
"a  c #27403B",
"s  c #2A4B49",
"d  c #3D4D49",
"f  c #3A4944",
"g  c #29574E",
"h  c #34534B",
"j  c #385C54",
"k  c #3D6A62",
"l  c #3B6368",
"z  c #3A766D",
"x  c #424D4A",
"c  c #495A57",
"v  c #515B5B",
"b  c #43625B",
"n  c #445E61",
"m  c #476B66",
"M  c #516C66",
"N  c #4D746C",
"B  c #45796D",
"V  c #4A756B",
"C  c #55746C",
"Z  c #487874",
"A  c #55757C",
"S  c #557F7E",
"D  c #5B7F7D",
"F  c #567A71",
"G  c #677A78",
"H  c #468475",
"J  c #5B817F",
"K  c #54807A",
"L  c #4C917F",
"P  c #52917F",
"I  c #59927F",
"U  c #6B827D",
"Y  c #66857D",
"T  c #5D7F81",
"R  c #5A7680",
"E  c #677F82",
"W  c #538281",
"Q  c #5A8B8A",
"!  c #4E9085",
"~  c #559681",
"^  c #5C9A88",
"/  c #5C8B94",
"(  c #578D96",
")  c #6E8382",
"_  c #6D8C84",
"`  c #65858C",
"'  c #698A8C",
"]  c #788883",
"[  c #6B9286",
"{  c #6C988C",
"}  c #73918A",
"|  c #729B8D",
" . c #668791",
".. c #638A92",
"X. c #669597",
"o. c #7F9791",
"O. c #7C9B93",
"+. c #749990",
"@. c #4FB99F",
"#. c #70AD9C",
"$. c #65B290",
"%. c #6A9CA3",
"&. c #78ABA8",
"*. c #67B3A5",
"=. c #75B6A6",
"-. c #7AAFB5",
";. c #6FC9AE",
":. c #7CCAAD",
">. c #7EC6BB",
",. c #68D4BA",
"<. c #7CEACF",
"1. c #76F3D3",
"2. c #898D8E",
"3. c #80938F",
"4. c #91918F",
"5. c #859693",
"6. c #8D9493",
"7. c #8C9995",
"8. c #8C9B99",
"9. c #859C99",
"0. c #959798",
"q. c #939B9A",
"w. c #9A9F9B",
"e. c #959497",
"r. c #87A39C",
"t. c #92A09E",
"y. c #A799A8",
"u. c #86ABA5",
"i. c #96AEAD",
"p. c #83B4A7",
"a. c #8AB7AB",
"s. c #83BCAC",
"d. c #87B6AE",
"f. c #96B0AD",
"g. c #85B3B5",
"h. c #88BDB7",
"j. c #95B5B1",
"k. c #9CBCB4",
"l. c #9CBABE",
"z. c #9CB1B7",
"x. c #A2BBB5",
"c. c #A5B4B8",
"v. c #83CEBA",
"b. c #93C2B8",
"n. c #87D8B7",
"m. c #91DDBF",
"M. c #A7CABE",
"N. c #ACBDC5",
"B. c #87CBC1",
"V. c #9BC5C5",
"C. c #88DFC6",
"Z. c #9DD7C7",
"A. c #9ADECD",
"S. c #97D8CA",
"D. c #A2C4C6",
"F. c #B4CDC7",
"G. c #A6DECC",
"H. c #B1DCCC",
"J. c #AFC7D1",
"K. c #AEDCD2",
"L. c #A4DDD5",
"P. c #B2DCD2",
"I. c #BBDDD6",
"U. c #B4DCD9",
"Y. c #BAD6DA",
"T. c #8AE4CC",
"R. c #86E5C9",
"E. c #92E3CD",
"W. c #94ECCE",
"Q. c #98E5C9",
"!. c #8FE4D3",
"~. c #84ECD2",
"^. c #8BEBD4",
"/. c #95E5D5",
"(. c #9BE5D2",
"). c #93EAD3",
"_. c #9CE9D4",
"`. c #92EDDA",
"'. c #9CEDDB",
"]. c #9AE7DB",
"[. c #84F5D9",
"{. c #8CF4DA",
"}. c #87F8DC",
"|. c #94F1D3",
" X c #96F3DD",
".X c #A5E3CE",
"XX c #A4E3D4",
"oX c #ABE2D4",
"OX c #A1EBD5",
"+X c #A3E5DC",
"@X c #A3EBDC",
"#X c #AEE1DB",
"$X c #B2E4DA",
"%X c #B4E5D4",
"&X c #BAE5E2",
"*X c #F5FFFF",
"=X c None",
/* pixels */
"=X=X=X=X=X=X=X=X=X=X=X=X=X=X=X=X=X=X=X=X=X=X=X=X=X=X=X=X",
"=X=X=X=X=X5 7 & q 8 5 * * 9 5 & * 9 * e & =X=X=X=X=X=X=X",
"=X=X=X=X6 J.N.l.V.l.z.j.x.i.f.k.j.j.f.z.j.9 =X=X=X=X=X=X",
"=X=X=X6 g.V.D.p.z , 4 8 O 0 1 > 1 r 1 > 1 a., =X=X=X=X=X",
"=X=X=Xq -.h.&.! r +X+XXXoX(.).).^.R._._.Q.XX> * =X=X=X=X",
"=X=X4 l %.%.q Q B.s.g.g.p.p.a.p.s.s.=.s.Z.K.I.2 =X=X=X=X",
"=X=X$  .%.Q & Z +Xg , > @ # + . O @ O , 1 r.F.O =X=X=X=X",
"=X=X3  .Q S 8 B $X& r.5.5.4.6.8.6.8.8.5.O.@ k.# =X=X=X=X",
"=X=X3  ./ D & N H.@ t.0.4.= 4.q.4.0.= 9.5.X k.# =X=X=X=X",
"=X=X4  ...J O N %X@ 8.6.t.= 6.4.q.4.= 0.5.X k.# =X=X=X=X",
"=X=X4 ' ..J > V H.> 8.5.4.q.6.q.6.e.e.0.o.> x.+ =X=X=X=X",
"=X=X3  ...D > m %X@ 5.8.w.U 2 9.t.+ 2.8.r.X b.< =X=X=X=X",
"=X=X3  ...T @ F H., 8.w.6.8.U O @ 5.q.O.O.X k.# =X=X=X=X",
"=X=X6  .( T > B .X> [ } } ) } [ [ _ } _ | X b.. =X=X=X=X",
"=X=X6 / ( W , P (.P B > > 1 > > 1 @ > , > [ M.# =X=X=X=X",
"=X=X4  .( W , I m.Q..X.X$X.X_.OXOXoXH.oX.XG.H.2 =X=X=X=X",
"=X=X$ A ..W , I n.$.y p u p @.[.^.A.I.oX)..XP.@ =X=X=X=X",
"=X=X3 4 X.K @ ^ Q.n.:.=.>.;.,.`.(.$Xc.b.W.OXG.@ =X=X=X=X",
"=X=X3 A ..K , ~ W.W.W.Q.E.!.[.].#Xc.y.a.T._._.> s =X=X=X",
"=X5 3 ` Z Z 1 ^ W.|.<.T.S.`.~./.+Xb.u.&. X).(.> X =X=X=X",
"=X& R A l l , ! R.W.~.W.+X/.].!.]./.+X^.<.`._.i N ; =X=X",
"=X$ E l s & @ H R.|.R.'.B.*.*.`.`.^.^.{.{./.#Xi N @ =X=X",
"=X5  .n 8 D j , v.'.!.>.&.*.*. X<.[.1.}.R.].K.i S F = =X",
"=X$ E n & ) M k #.A.@XXX&X$XXXXX].^.^.).'.[ N , N ] = =X",
"=X% ) v O * c h > { S.U.Y.U.U.K.P.oXXXoXh.+.O w F U = =X",
"=X; G v =X=X% . @ @ , & * & & , , > g j b c *Xt C ] o =X",
"=X=X; = =X=X=X=X=X< t # =X=X=X=Xo f < =X=X=X=X=Xx = =X=X",
"=X=X=X=X=X=X=X=X=XO d 2 =X=X=X=X= d 2 =X=X=X=X=X=X=X=X=X",
"=X=X=X=X=X=X=X=X=X- x : =X=X=X=X. c + =X=X=X=X=X=X=X=X=X",
"=X=X=X=X=X=X=X=X=X+ f ; =X=X=X=X6.  e =X=X=X=X=X=X=X=X=X",
"=X=X=X=X=X=X=X=X=X=X2 - - =X=X=Xw.+ - : =X=X=X=X=X=X=X=X",
"=X=X=X=X=X=X=X=X=X=X=X=X=X=X=X=X=X=X=X=X=X=X=X=X=X=X=X=X"
};
