/* XPM */
static char *xpm_[] = {
/* columns rows colors chars-per-pixel */
"32 32 37 1 ",
"  c #00030D",
". c #00040F",
"X c #000510",
"o c #020A16",
"O c #000C17",
"+ c #000C18",
"@ c #020D1A",
"# c #020F1C",
"$ c #000F1E",
"% c #00101B",
"& c #01101D",
"* c #02141F",
"= c #04141F",
"- c #05141F",
"; c #021321",
": c #021420",
"> c #061521",
", c #061621",
"< c #011726",
"1 c #041624",
"2 c #041825",
"3 c #051927",
"4 c #081824",
"5 c #021728",
"6 c #031728",
"7 c #031929",
"8 c #071929",
"9 c #061A2A",
"0 c #051D2B",
"q c #03182C",
"w c #03182D",
"e c #041B2C",
"r c #061B2C",
"t c #021D2C",
"y c #051D2D",
"u c #0A1F2E",
"i c #052130",
/* pixels */
"XXooi:owqqqqq5<XXXX#<5w<<&9o95w7",
"7y*oio:7qqqq5+oo11o9wwwryyyyy;oo",
"yy0oi*owqooo+o,oo;o5wyyryy<o9oo<",
"y0yoi:@ooo91qq,;,,o,,oo#oooo<o57",
"y0yoooyy0o5w7wo&1;o7yow;@2777o#@",
"0y0oro0yyowwwwo:<@;ooo+#owoooooo",
"y00oyoy00o;ww;o@@;o#<+o+o1ou0yyy",
"yyyoyo0yyoooooo777oo,,,#@:o7y0y0",
"ooooyo<y0<o&9<7<577o9,4,oo<&oooo",
"u0r9<o,,y0yy,yy7o<7ooo,,;o*yyy0y",
"&&#@o*0wyy0<:#ooo,,:<,,,;o;y00y0",
"77772o@o%ooo@:yy9oooo<o&<o*oooo9",
"oooo#@tyo09<o75ooo&&&&@&5o<ryyy0",
"rr992oo9,o<o<o@o;<o@o2o97oo<<<5<",
"ooo7:o<otyo0o:,o@oo,2:o975ooo@&%",
"<<o:2@7<oyyy<<,o%:w7w&o92<2<oy59",
"9<o*<o2<o9yyo<,o%&727#o9oooooy77",
"o@,<:o<o9ooy,o,o&:::ooo7ow7w&*5<",
"0ryyyoo7oo5or#oo;9oowro2o777&&#&",
"75yy<o9oo91<+too:7<7<9o9o<:ooooo",
"oooooooo&*,=%oo<:7<<95o9o<o92:2w",
"<yyy,*y0y00y0yr,@@oo<;o#o;o<oXo7",
"y0y09oooooooooo:<9992y4949o;ooo7",
"0y0y@+t9wry0ry2ow700y<777<o<yyyt",
"95w:&o7<oooooo<o79&ooooo,<o9yyy0",
";ooo@o<2y00y23<ow:o7y97wo<oooooo",
"9997*o970yy0y<:ow:o7yy<9o<o19yy9",
"7717yo<oooooooooo@o777<9o<o9y0yy",
"oooyy&o7w0wt0ww00oo7<95oo<o75@@&",
"<<oyy&o:ytt00000<o%<ooo<oo&7o<79",
"97o7y:ooooooo&@@4&o=04492:o::77<",
"..o7y&<oo777777.ooo<t7w7w&9o7777"
};
